<?xml version="1.0" encoding="UTF-8"?>
<svg id="Layer_1" xmlns="http://www.w3.org/2000/svg" version="1.1" viewBox="0 0 1024 1536">
  <!-- Generator: Adobe Illustrator 29.8.1, SVG Export Plug-In . SVG Version: 2.1.1 Build 2)  -->
  <defs>
    <style>
      .st0 {
        fill: #583411;
      }

      .st1 {
        stroke: #120f0d;
      }

      .st1, .st2 {
        fill: #120f0d;
      }

      .st1, .st3 {
        stroke-miterlimit: 10;
      }

      .st4 {
        fill: #0260aa;
      }

      .st5, .st6, .st7, .st8, .st9, .st10, .st11 {
        display: none;
      }

      .st5, .st12 {
        fill: #46727a;
      }

      .st6, .st13 {
        fill: #020101;
      }

      .st14 {
        fill: #060504;
      }

      .st15 {
        fill: #eeeeec;
      }

      .st16 {
        fill: #f9f9f9;
      }

      .st7 {
        fill: #010000;
      }

      .st17 {
        fill: #040303;
      }

      .st18 {
        fill: #492a09;
      }

      .st19 {
        fill: #493e36;
      }

      .st20 {
        fill: #3a3939;
      }

      .st21 {
        fill: #3b3a39;
      }

      .st8 {
        fill: #fefefe;
      }

      .st3 {
        fill: #bc3;
        stroke: #000;
      }

      .st22 {
        fill: #3a3938;
      }

      .st10 {
        fill: #faf9f9;
      }

      .st11 {
        fill: #f8f7f7;
      }

      .st23 {
        fill: #020203;
      }

      .st24 {
        fill: #040403;
      }
    </style>
  </defs>
  <path class="st23" d="M469.43,461.61c206.71,68.68,177.34-166.81,241.47-175.21,42.53-5.57,13.77,97.71-25.01,96.68-4.91-.13-8.32-3.2-12.85-4-11.98,52.21-51.5,89.35-100.07,105.53.13,14.05,1.18,25.48,13.91,29.13,1.17.33,3.96,2.83,5.17,2.88,7.37.31,9.33,3.61,13.1,3.21,18,12,12,10,24,9,3.81,4.32,24.2,7.08,26.78,9.57,3.06,2.95,11.07,6.77,15.11,9.94,23.86,18.67,33.67,46.88,45.83,74.24,10.84,24.4,21.54,46.52,30.36,71.79.61,5.62-12.56,10-13.81,12.12-.78,1.32-.55,2.92-.48,4.38.66,13.91,6.88,35.48,9.26,50.32,9.04,56.25,13.51,110.85,21.35,167.17,5.89,42.28,27.14,106.39-5.72,142.34-5.18,5.67-8.18,4.42-11.98,7.28-3.4,2.55-4.69,7.63-10.86,10.39-8.61,3.84-10.18-1.6-12.73-1.34-3.33.34-6.69,4.5-11.14-.64-6.78-7.82,4.62-33.14,7.11-42.67,3.61-13.8,4.3-26.99,2.38-41.16-1.38-.26-1.23,1.85-1.44,2.91-2.6,13.31-5.17,32.87-18.05,40.25-24.39,13.97-12.83-22.82-11.12-33.99,2.83-18.55,4.57-34.85,10.59-52.88,3.27-9.8,7.54-13.74,6.67-25.45-1.52-20.57-12.84-52.43-17.61-74.01-5.12-23.1-7.76-46.6-13.26-69.62l-3.34-11.74c-.16,10.25,1.19,13.59.1,23.8-1.24,11.62,3.42,23.4,5.18,34.29,1.96,12.08,3.13,29.21,4.12,42.11.22,2.82,2.67,20.27,2.36,22.97-.37,3.3-24.17,11.65-24.44,12.66-.28,23.81,1.75,39.87,1.28,63.68-.05,2.32-.98,4.46-1.03,6.78-2.69,124.29-11.98,248.3-21.11,372.34-1.12,3.97-9.53,5.75-10.13,6.73-.39.64-.42,13.3-.21,15.09.58,4.76,3.02,2.79,6.29,4.31,13.26,6.17,18.59,20.67,27.57,31.43,14.61,17.5,35.07,29.22,38.58,54.4,2.3,16.52,1.97,30.1-11.41,41.17-7.73,6.4-16.22,10.44-25.73,12.24-9.12,1.73-26.36,2.53-37.15,0-17.17-4.03-29.92-10.23-42.85-21.11-6.82-5.74-13.44-11.75-19.88-17.93-14.28-13.68-28.62-27.63-21.99-49.21l.53-20.86c1-12.12,2.51-28.53,13.01-35.51l-.38-11.2c-10.64-1.34-16.31-6.36-17.01-15.07l-2.96-45.26c-3.19-105.98-9.85-211.78-17.04-317.43l.93-5.56c-.92,3.26-12.81,3-14.29,0,.22,7.85.34,15.72-.24,23.57-8.68,117.14-16.86,234.26-22.66,351.61-3.04,4.83-8.06,7.75-15.05,8.78-.17,3.39-.29,6.78-.35,10.17,9.86,7.57,11.61,22.01,12.56,34.05l.97,22.1c3.28,15.37,1.68,23.89-8.76,35.98-12.42,14.4-40.9,41.66-57.77,49.06-5.44,2.39-9.42,2.82-16.33,3.83-9.27,1.36-27.25,1.33-36.2,0-15.3-2.28-33.27-10.65-38.55-27.47-3-9.55-1.45-29.39,2.49-38.55,7.33-17.06,25.75-29.88,37.5-43.75,9.45-11.14,15.7-27.22,31-31l-.19-17.4c-.78-2.39-10.13-2.99-11.78-6.5-.52-1.1-1.19-10.73-1.41-13.25-2.6-29.62-3-60.38-4.78-90.16-4.65-77.58-10.31-155.55-12.41-233.27-1.02-37.86-1.65-65.99-2.28-103.86-.8-4.39-27.12-8.74-27-14l11-60,6.88-53.03-34.34,146.54c-.05,9.97,5.64,18.39,8.65,27.44,6.01,18.11,6.91,37.15,9.79,55.66,1.13,7.3,10.24,30.59-3.35,29.03-9.46-1.09-17.96-10.93-20.76-19.9l-6.63-29.97c-3.32,13.94-2.17,30.43,1.42,44.16,2.5,9.55,7.43,18.89,9.52,28.43,1.2,5.44,3.47,15.93-4.04,17.48-3.82.78-5.97-1.83-8.37-1.73-1.96.09-3.35,2.89-6.62,2.92-6.48.06-11.58-6.14-15.76-10.3-4.64-4.61-7.46-4.31-11.89-9.34-34.35-38.97-13.46-100.38-7.21-145.76,9.95-72.22,15.75-143.14,30.64-214.57.42-8.04-15.13-8.29-14.33-16.5,21.04-48.77,35.09-113.62,78.71-146.41,3.16-2.38,11.1-5.16,13.38-6.29,7.13-3.53,7.42-1.76,16.55-6.18,11.58-5.6,16.49-7.3,33.76-13.69,4.23-1.57,13.59-6.91,20.95-9.28,9.63-3.11,9.98-18.39,8.07-27.12-21.78-6.23-42.95-16.14-60.49-30.88-22.23-18.68-36.17-46.51-44.33-74.48-20.86,11.46-58.36-3.88-60.36-87.88-.52-21.72,30.78,75.52,45.4,57.03,1.44-1.82,22.99-17.31,23.25-16.93,33.68,50.46,42.24,105.87,115.8,130.31h-.01v.02Z"/>
  <path class="st4" d="M544.98,1358.09c-.37-2.03-.98-4.11-1.15-6.18-6.93-84.51-7.26-170.01-12.37-254.71-2.07-34.27-7.43-70.31-8.57-104.23-.07-2.19-.49-8.93.92-9.94,1.17-.84,12.17-.83,15.3-1.86,2.76-.9,3.9-3.88,1.33-4.42-1.34-.28-9.64,1.82-12.25,1.95-10.43.52-23.86.59-34.26,0-2.63-.15-15.87-2.71-16.56-2.01-.51.51-.02,2.65.97,3.41,3.01,2.33,18.2,1.82,22.76,2.48l-10.44,123.45c-3.83,84.41-9.56,168.72-14.41,253.1-22.81,9.96-47.86,9.73-71.81,4.41-3.27-.73-18.16-4.12-19.01-6.86l-6.78-100.18c-3.79-93.55-11.19-186.81-12.39-280.27-.25-19.56-1.28-42.85,0-62.04.14-2.17.75-4.19,1.03-6.32,23.98,5.83,48,11.03,72.58,13.73,71.41,7.82,147.78,5.77,216.88-14.75-.36,24.08.5,48.24.05,72.33-.04,2.33-.98,4.48-1.03,6.8-2.58,123.64-11.68,247.23-21.08,370.6-1.49,3.8-11.23,6.21-14.95,7.13-24.5,6.1-51.48,4.19-74.77-5.64v.02h.01Z"/>
  <path class="st0" d="M671.77,209.71c4.52,34.78,1.65,70.13,3.98,105.05,1.76.36,2.36-.85,3.05-2.24,1.84-3.74,3.11-10.77,5.05-15.43,6.46-15.51,16.83-29.1,34.32-17.93,30.72,19.63,4.58,97.93-32.46,98.62-3.28.06-10.04-1.74-11.43-5.03-.74-1.75,2.23-9.74-1.85-8.81-1.44.33-7.51,24.97-9.01,29.04-30.59,82.74-119.74,106.26-197.48,90.48-54.28-11.02-93.2-40.2-112.96-94.42-1.34-3.67-6.55-23.86-7.54-24.64-4.21-3.33-1.87,6.28-1.87,6.97.04,5.11-9.49,6.61-13.57,6.09-38.04-4.77-61.22-88.54-25.36-100.52,23.83-7.96,30.03,19.15,36.48,36.85.97,1.2-6.02,1.13-5.09-.01,1.36-1.65-2.24-10.72-2.03-13.58,1.31-17.93-2.07-7.05-1-25,.28-4.71-.22-66.56,1-68,26.97-31.77,17-64,17-64l172-28,59-24,76,55s-11.11,52.87,13.75,63.49l.02.02h0Z"/>
  <path class="st0" d="M732.78,708.27c7.78,40.9,14.45,82.15,19.88,123.5,4.19,31.93,6.28,64.27,10.71,96.11,5.7,40.92,24.33,99.44-4.39,135.39-1.39,1.74-4.07,4.77-6.19,5.39,5.7-13.22,11.89-28.54,12.39-43.22.05-1.33.83-5.02-1.46-4.46-3.55,5.27-3.04,13.33-4.57,19.86-2.8,12.03-11.18,32.8-21.08,40.12-3.47,2.57-7.01,4.37-10.91,1.48,15.33-18.68,22.88-45.1,23.72-69.35-1.07.14-2.11-.56-2.93.58-.77,1.08-3.58,21.92-4.74,26.39-2.83,10.91-8.79,27.15-15.67,35.9-2.01,2.56-9.33,10.49-12.32,6.04-4.13-6.14,7.79-33.13,9.76-41.15,2.49-10.16,3.93-21.68,3.1-32.16-.33-4.13-3.11-22.6-8.06-12.32-6.02,12.5-2.3,36.94-19.44,44.77-8.71,3.98-9.17.56-8.43-7.76,1.8-20.4,7.7-51.61,14.1-70.96,7.58-22.92,9.56-19.87,4.12-45.53-10.55-49.83-23.73-99.3-33.28-149.44l-.3-40.95,55.98-18.22h.01Z"/>
  <path class="st0" d="M313.03,1082.8c-7.57,4.94-20.31-20.8-22.53-26.08-6.29-14.97-6.93-25.73-9.64-41.16-.53-3.01-3.65-3.18-3.79-1.97,1.16,24.64,9.05,50.46,24.68,69.32-9.93,3.31-16.54-6.21-21.28-13.84-9.17-14.75-13.14-30.66-14.87-48.05l-2.77-.07c-1.24,17.15,5.64,30.39,11.95,45.16.7,1.65.86,3.11-1.05,1.09-33.7-39.54-15.76-89.9-9.12-135.38,10.23-69.97,15.37-140.52,28.89-210.06.46-2.35,2.16-14.23,3.94-14.42,16.91,8.35,35,13.65,53.25,17.49,1.34,15.72-.71,31.85,1.14,47.53l-37.82,165.49c.77,11.62,7.25,21.6,10.55,32.42,3.96,13,4.64,25.94,6.73,39.25.87,5.51,6.14,27.45,5.61,30.59-1.32,7.7-14.95-3.64-17.53-7.41-7.89-11.52-5.99-25.17-10.5-36.33-2.58-6.39-4.8-4.17-6.45,1.18-3.63,11.73-2.56,28.04-.04,39.97,2.43,11.53,12.38,30.48,11.74,40.96-.09,1.48-.55,2.97-1.09,4.32h0Z"/>
  <path class="st0" d="M568.49,484.92c.35,6.55.45,14.35,3.95,20.01,3.16,5.1,7.27,4.14,4.8,12.18-8.45,27.56-47.55,36.54-71.86,34.68-18.76-1.44-55.65-14.36-58.16-37.14-.77-7.01,2.42-6.57,4.71-11.34,2.5-5.19,2.91-11.71,2.65-17.42,38,7.15,76.2,8.95,113.91-.98h0Z"/>
  <path class="st0" d="M560.9,1369.64c.23-.8,1.37-1.36,2.28-1.43,4.14-.28,13.96,2.57,19.09,2.89,13.82.86,29.06-.52,42.22-4.91l.96,16.73c-11.3-.46-23.72,4.49-30.22,14.42-1.88,2.87-5.48,14.41-7.42,14.99-8.47-1.46-19.75-7.17-24.09-15.11-.49-.9-2.81-6.54-2.81-6.92,0-4.39-.86-17.65,0-20.65h-.01Z"/>
  <path class="st23" d="M461.23,1368.16v21.15c0,.62-3.26,8.55-3.95,9.68-4.55,7.45-15.29,14.03-23.98,12.51-3.5-17.48-18.25-29.63-35.67-28.58v-16.72c20.67,5.39,42.69,7.14,63.6,1.97h0Z"/>
  <path class="st21" d="M373.42,1416.35c-2.39-.72-1.6-4.86,1.14-5.7s15.97-.44,19.49.05c4.09.57,21.46,6.61,20.51,11.9-1.12,6.23-11.11-1.54-14.11-2.8-1.52-.64-9.09-3.46-9.95-3.46-3.78,0-14.43.79-17.09,0h0Z"/>
  <path class="st22" d="M642.05,1427.17h15.19c1.23,0,2.38,4.13.52,5.46-1.59,1.14-6.66.15-9.05.46-4.78.61-12.01,2.55-16.32,4.73-2.86,1.44-10.59,9.62-12.55,3.46-2.16-6.79,17.43-13.09,22.21-14.1h0Z"/>
  <path class="st21" d="M633.51,1416.35c-2.04.27-8.71,2.54-10.9,3.46-2.79,1.17-11.67,8.73-13.23,3.8-2.3-7.25,18.27-12.68,23.2-13.15,3.22-.3,11.3-.55,14.2.01,4.32.84,3.76,5.87,1.93,5.87-4.64,0-10.82-.57-15.19,0h-.01Z"/>
  <path class="st20" d="M381.97,1427.17c4.77.67,22.11,7.83,20.97,13.83-1.22,6.43-8.34-1.21-10.96-2.56-2.28-1.18-6.38-3.06-8.76-3.71-4.52-1.25-14.46-.99-16.9-2.16-3.44-1.66-.63-5.4.46-5.4,4.58,0,10.92-.6,15.19,0h0Z"/>
  <path class="st24" d="M589.18,208.84c15.49-1.07,34.97,5.25,46.72,15.92,3.59,3.26,13.45,14.05,10.01,19.24-1.01,1.3-2.28,1.01-3.62.76-4.9-.92-15.27-7.05-21.81-8.94-14.35-4.14-26.36-3.84-41.1-3.72-4.28.04-13.07,2.85-15.2-3.83-4.2-13.18,15.84-18.8,25.01-19.43h-.01Z"/>
  <path class="st17" d="M423.07,208.82c9.17-.4,37.96,4.94,30.43,19.75-3.47,6.83-10.36,3.61-15.49,3.53-14.81-.24-27.76.48-42.06,4.7-3.51,1.04-18.64,7.95-19.69,7.86-3.59-.28-2.04-6.47-1.16-8.82,5.67-15.1,33.32-26.38,47.97-27.02h0Z"/>
  <path class="st6" d="M592.97,253.09c67.04-6.49,63.47,103.97-4.78,90.93-49.95-9.55-47.09-85.9,4.78-90.93Z"/>
  <path class="st6" d="M420.25,253.04c65.83-2.56,64.63,100.09-4.82,90.98-50.06-6.57-45.83-89.01,4.82-90.98h0Z"/>
  <path class="st13" d="M447,399.35c8.73,4.67,15.81,10.86,25.37,14.52,28.43,10.9,66.41,8.98,90.87-10.62,1.75-1.41,5.7-7.59,7.03-3.27,1.22,3.96-1.78,5.92-4.32,8.05-27.7,23.18-78.94,21.88-108.81,3.91-4.21-2.53-13.04-6.97-10.14-12.59Z"/>
  <path class="st13" d="M499.89,333.69c3.14-.55,9.35-.05,5.52,2.76-1.83,1.34-4.58.96-6.74,1.87-30.15,12.65-19.46,44.26,13.39,42.39,3-.17,14-3.6,14.66-.52.55,2.57-5.65,3.82-7.36,4.16-13.07,2.6-33.85.39-40.48-13.61-7.43-15.7,5.48-34.32,21.01-37.04h0Z"/>
  <path class="st13" d="M322.63,354.1c-10.59-2.5-10.87-19.43-4.72-27.02,2.63-3.25,8.16-5.08,8.46-5.51,1.85-2.7-9.74-20.54-16.35-19.42-1.84.31-7.42,5.73-8.26,4.74-2.91-3.42,6.82-12.04,15.52-6.73,9.11,5.56,18.37,27.44,18.2,38.23-1.03,1.34-1.88,1.43-2.86-.03-1.3-1.94-2.39-13.48-4.74-13.66-8.98,3.39-12.78,12.01-9.22,21.24.6,1.55,4.82,7.35,3.98,8.16h-.01Z"/>
  <path class="st13" d="M691.89,321.64c14.59-.71,16.61,28.16,7.01,32.35-5.3,2.31.37-6.43.63-7.22,3.34-10.39,1.53-19.03-9.51-22.17-.84.65-3.91,18.1-6.66,14.74-1.08-12.18,12.28-44.02,26.61-40.92,3.94.85,10.26,8.42,6.13,8.45-.41,0-4.76-4.35-6.87-4.75-6.98-1.31-16.91,12.75-17.34,19.52h0Z"/>
  <path class="st8" d="M594.9,257c50.31-2.31,59.31,77.89,7.28,83.33-57.92,6.06-61.26-80.85-7.28-83.33Z"/>
  <path class="st8" d="M394.16,328.19c-15.43-16.6-14.05-45.75,3.02-60.61,31.8-27.7,78.29,6.07,65.03,46.73-9.2,28.19-48.75,34.64-68.05,13.88h0Z"/>
  <path class="st5" d="M589.12,275.65c35.66-6.3,39.45,46.43,9.99,51.66-32.4,5.76-39.63-46.42-9.99-51.66Z"/>
  <path class="st12" d="M420.16,275.65c39.46-6.93,39.05,57.16,1.92,51.64-27.01-4.02-27.42-47.15-1.92-51.64h0Z"/>
  <path class="st9" d="M601.71,291.16c-3.73,3.61-3.92,5.94-.58,6.97,1.44-1.16,2.9-1.85,4.38-2.05,3.11,11.72-5.6,21.85-16.48,15.6-12.52-7.18-4.05-29.33,12.69-20.52h-.01Z"/>
  <path class="st11" d="M601.71,291.16c.77.41,2.06.6,2.6,1.22.87,1.02.87,2.47,1.2,3.7-4.81,10.76-14.72-3.35-3.8-4.92Z"/>
  <path class="st7" d="M433.7,291.16l-.64,2.07c-7.7,1.02.28,9.36,1.47,1.48l2.02-.59c1.56,2.32,1.24,7.14.72,10.09-1.91,10.84-16.74,12.49-21.8,2.4-6.11-12.2,7.99-22.53,18.22-15.44h.01Z"/>
  <path class="st10" d="M433.7,291.16c.17.12,2.73,2.78,2.85,2.95-1.88,14.43-16.87-1.46-2.85-2.95Z"/>
  <g>
    <g>
      <path class="st16" d="M630.5,332.91c-2.3,2.92-5.49,5.37-9.54,7.36-12.69,5.12-25.09,7.07-38.17,1.36-17.98-7.88-27.47-27.29-23.45-47.32,16.01-30.84,61.61-33.79,78.3-9.95,9.21,16.68,7.98,37.01-7.17,48.55h.03,0Z"/>
      <path class="st1" d="M628.02,335.57c-1.22,1.21,3.48-.97,4.27-2.59,17.13-15.01,10.95-38.78,6.61-45.14-23.04-33.66-76.35-13.47-80.48,11.74,0-3.45.95-8.43,4.13-12.71,17.27-19.39,27.14-21.1,36.68-22.06,45.29,1.67,56.42,47.23,31.27,68.13l-2.47,2.63h-.01Z"/>
      <path class="st19" d="M620.95,340.28c2.2-2.9,7.13-4.98,9.54-7.36l.87.93h0"/>
      <path class="st18" d="M621.82,326.48c-2.82,2.39-7.05,5-10.41,6.44-13.08,2.94-25.61,1.99-34.38-10.1-10.53-14.54-7.57-37.26,7.76-46.68,31.97-19.66,62.48,23.55,37.03,50.34h0Z"/>
      <path class="st2" d="M621.82,326.48l6.51-11.95c7.61-16.66-4.73-39.13-21.79-41.27-43.88-5.47-45.43,55.83-10.31,59.63h15.18c-36.83,15.71-58.06-40.12-24.88-59,32.78-18.65,61.86,30.04,35.29,52.56h0v.02h0Z"/>
      <path class="st14" d="M607.94,288.79c-1.29,6.64-.58,8.6,6.06,7.36,2.59-.51,1.72,1.42,1.74,3.17.19,13.33-8.88,22.33-21.15,16.92-13.96-6.17-9.91-25.5,4.42-28.15,4.06-.74,5.83.37,8.9.7h.03Z"/>
      <path class="st15" d="M614.02,296.15c-4.4,6.46-12.57-2.12-6.06-7.36.27,0,1.45-1.01,2.82-.76,3.63.68,5.49,4.85,3.24,8.1h0v.02Z"/>
    </g>
    <g>
      <path class="st16" d="M388.7,330.8c-15.14-11.54-16.38-31.87-7.17-48.55,16.69-23.83,62.29-20.89,78.3,9.95,4.02,20.03-5.47,39.44-23.45,47.32-13.08,5.72-25.48,3.76-38.17-1.36-4.06-1.99-7.24-4.44-9.54-7.36h.03Z"/>
      <path class="st1" d="M388.68,330.8c-25.15-20.87-14.02-66.44,31.27-68.13,9.54.99,19.39,2.69,36.68,22.06,3.19,4.3,4.13,9.27,4.13,12.71-4.13-25.21-57.44-45.42-80.48-11.74-4.35,6.33-10.53,30.1,6.61,45.14.79,1.62,5.49,3.8,4.27,2.59l-2.47-2.63h0Z"/>
      <path class="st19" d="M387.81,331.72h0l.87-.93c2.41,2.39,7.34,4.46,9.54,7.36"/>
      <path class="st18" d="M434.38,274.02c15.34,9.42,18.29,32.14,7.76,46.68-8.77,12.09-21.3,13.04-34.38,10.1-3.36-1.44-7.59-4.05-10.41-6.44-25.46-26.79,5.06-70,37.03-50.34Z"/>
      <path class="st2" d="M397.35,324.34c-26.58-22.52,2.51-71.21,35.29-52.56,33.18,18.88,11.96,74.71-24.88,59h15.18c35.11-3.8,33.57-65.1-10.31-59.63-17.05,2.14-29.4,24.61-21.79,41.27l6.51,11.95h0v-.02h0Z"/>
      <path class="st14" d="M411.26,286.67c3.07-.33,4.85-1.44,8.9-.7,14.33,2.65,18.39,21.98,4.42,28.15-12.26,5.41-21.34-3.6-21.15-16.92.02-1.75-.85-3.68,1.74-3.17,6.64,1.23,7.36-.72,6.06-7.36h.03Z"/>
      <path class="st15" d="M405.15,294.01c-2.24-3.25-.39-7.42,3.24-8.1,1.37-.25,2.55.78,2.82.76,6.51,5.24-1.66,13.82-6.06,7.36h0v-.02Z"/>
    </g>
  </g>
  <path class="st3" d="M601.5,518.6c14.04,2.79,27.64,8.17,40.6,14.59,33.14,16.4,47.11,30.72,62.62,67.4,13.45,31.82,25.09,63.61,38.37,95.62.36,1.46-.76,2.04-1.62,2.79-18,15.07-51.22,23.09-73.51,24.03-3.1-31.07-4-63.12-8.2-93.99-.23-1.89-1.43-12.55-1.86-12.98-.59-.63-3.61.16-3.92,1.77l28.63,282.39c-29.07,14.28-64,21-95.75,24.46-65.98,7.12-152.72,6.21-216.96-11.88-4.8-1.33-26.96-8.25-29.42-10.9-1.22-1.33-1.07-2.71-1.03-4.44.44-14.04,5.16-34.37,6.94-49.23,8.45-70.9,18.99-147.07,22.28-218.22.23-5-.12-10.03,0-15.02-2.93,2.08-3.33,8.21-3.88,11.84-4.72,31.3-4.87,63.59-9.32,94.97-25.53-.59-53.65-8.21-74.3-25.09,12.73-31.82,23.47-65.63,36.95-96.97,4.4-10.23,9.4-21.55,15.9-30.32,21.37-28.99,74.44-42.24,105.53-53.4,5.27,15.11,5.52,14.65,18.56,23.3,26.91,17.87,90.91,33.87,125.79-21.15l3.76-3.15s13.93,3.62,13.86,3.57h-.02Z"/>
  <path d="M314.03,325.48c-4.63-.16-9.2,1.08-13.85.61-13.7-1.4,4.82-13.88,3.34-18.34-1.22-3.69-17.26,5.18-15.84-4.15.38-2.5,5.17-9.09,2.33-10.45-2.28-1.09-16.28,7.3-20.62,7.03-5.2-.32-6.76-8.99-5.37-13.18.94-2.82,7.22-8.02,6.92-9.51-.51-2.56-11.79,1.94-8.24-5.08,1.53-3.03,4.89-6.22,7.68-8.16,7.16-4.99,20.68-6.12,13.83-18.5-3.9-7.06-11.25-6.68-17.38-9.52-7.75-3.59,4.23-5.16,4.6-8.96.24-2.51-4.8-3.8-4.81-5.94-.03-4.11,16.7-3.97,16.68-7.85,0-1.4-7.69-4.67-9.46-5.84-5.1-3.38-12.73-11.04-11.36-17.56,1.1-5.23,8.68-6.84,9.6-9.31,1.05-2.83-1.83-1.88-3.02-3.46-2.51-3.36,3.3-7.32,4.6-10.07,3.66-7.71-2.6-8.73-4.37-14.3-1.18-3.73-.31-9.45,2.28-12.51,4.57-5.41,8.79.76,13.25.36,4.12-.37,3.5-6.38,12.03-4.61,2.36.49,8.41,5.15,9.2,1.24,1.14-5.67-3.77-11.34-9.2-12.71-2.73-.69-9.02-.12-10.2-2.7-.9-1.97,1.3-4.47,1.55-6.92.42-4.27-2.18-20.56-.12-24.39.64-1.19,4.21-4.83,5.35-5.61,5.82-3.98,5.95,2.61,10.62,3.5,2.33.44,7.22-.47,6.01-3.47-1.71-4.24-5.19-5.86-6.19-12.07-2.22-13.78,8.93-.61,13.52-7.33.94-1.37,1.14-3.69,2.2-5.08,3.37-4.43,7.34,3.09,10.33,3.82,4.83,1.17,6.33-7.07,3.85-10.47-2.26-3.09-10.82-3.13-11.63-5.52-1.12-3.29,4.4-6.68,4.83-10.22.61-5.02-7.27,28.44-1.78,23.82,10.13-8.54,15.68-30.07,21.79-26.26,1.73-.39,1.78,28.23,4.23,25.73,4.94-5.03,13.54,2.75,12.11-10.17-.78-7.07-5.35-8.09-9.24-12.06-3.61-3.69,4.23-3.04,6.96-4.06,6.5-2.43,1.36-7.51,2.3-12.23.78-3.93,7.07-4.76,10.29-3.48s5.75,8.64,7.86,8.63c3.19,0,1.65-10.03,5.44-9.03.57.15,5.47,6.52,8.39,8.11,2.73,1.49,12.25,4.13,13.3.33,2.17-7.84-4.88-17.55-3.9-23.17.8-4.58,9.67-2.77,12.75-.69,3.45,2.32,4.9,8.6,9.28,3.59,1.44-1.65,2.29-5.98,5.13-5.07.74.23,3.91,12.73,9.64,15.1,8.12,3.35,5.89,9.57,7.88,4.83,2.43-5.78,7.8-5.2,12.63-8.14s7.54-8.48,12.73-9.55c-.75,5.77,1.91,9.39,4.57,13.96.62,1.07-.03,2.71,2.23,1.45,1.41-.79,1.93-4.23,4.56-3.98,2.86.28,3.89,6.29,5.88,4.85.28-.2-2.07-4.8-2.3-6.49-.46-3.36.74-14.11,5.07-14.09,5.11.02,9.5,12.22,16.78,9.26,1.44-.58,6.74-6.72,8.79-5.29,2.92,2.04-3.32,7.04-3.68,9.73-.17,1.29.39,6.39,1.52,6.89,1.76.77,1.81-1.56,2.77-2.71,4.47-5.38,5.18.43,7.37,1.83s1.64-.46,2.22-1.45c2.67-4.57,5.31-8.2,4.57-13.97.67,0,1.37-.1,2.03.12,1.35.45,7.4-2.87,10.09-1.18,4.84,3.03,11.27,3.08,13.42,8.58,1.62,4.14.03,12.73,7.64,9.28,3.12-1.41,5.54-3.88,7.34-6.68,1.35-2.09,1.78-7.4,5.03-3.51,1.6,1.91,2.27,5.63,5.22,5.77s5-4.92,8.32-6.38c3.1-1.36,10.74-2.11,11.14,2.41.47,5.35-6.21,15.54-4.23,22.22,1.65,5.56,13.86-18.43,17.04-21.35,1.44-1.33,4.5,2.83,6.79,4.38,1.19.8,1.07,12.13,5.24,7.75,3.64-3.82,5.73-11.59,13.5-7.11,6.62,3.82-.48,10.17,2.84,14.12,2.12,2.52,7.51,1.88,10.49,2.7,1.46,1.7-5.12,5.3-6.15,6.34-3.22,3.24-6.31,10.77-3.38,14.77,3.02,4.12,10.52-1.6,13.42,7.97.56,1.84.35-29.77,2.59-30.04,3.8-.47,10.78,12.84,21.25,22.36,5.33,4.84-2.22-28.94-1.86-24.37.31,3.94,6.09,7.29,4.81,10.84-.84,2.34-8.54,2.34-11,4.92s-2.25,6.16-.51,8.97c4.01,6.47,7.94-3.85,12.49-3.25,3.91.51,1.27,9.27,9.28,8.51,3.12-.3,7.79-4.54,8.31,1.47.3,3.52-.65,6.79-2.23,9.9-1.52,3.01-7.78,8.06-1.5,9.48s7.06-5.02,11.37-4.58c2.08.21,7.15,5.31,8.09,7.21,1.8,3.62-.69,5.99-.35,9.99.27,3.11,4.17,7-.58,8.49-6.22,1.95-14.6.24-16.98,9.31-2.68,10.2,4.38,4.57,8.81,3.21,8.66-2.66,7.94,4.52,12.77,4.7s7.7-6.36,12.61-.34c2.67,3.28,3.56,8.05,2.42,12.04-1.76,6.16-8.5,25.92-4.15,34.01,1.48,2.75,6.39,6.14,4.49,9.47-.97,1.69-4.61.83-2.97,4.08.8,1.59,7.11,4.05,8.75,7.17,3.63,6.92-5.44,15.86-10.81,19.43-1.73,1.15-9.46,4.45-9.46,5.85,0,2.55,11.17,4.11,13.46,4.95,8.51,3.14-1.91,5.44-1.59,8.84.28,2.99,8.1,4.3,7.22,7.26-.64,2.17-16.46,3.7-20.21,11.61-5.71,12.05,5.87,12.56,13.06,17.25,2.68,1.75,10.16,8.29,9.54,11.58-.58,3.08-8.69.39-9.12,2.51-.32,1.6,5.97,6.4,6.91,9.51,1.36,4.53-.07,13.1-5.97,13.13-3.83.02-17.93-7.98-20.01-6.99-2.84,1.35,1.95,7.95,2.33,10.45,1.42,9.36-14.56.26-15.84,4.15-1.48,4.46,17.04,16.93,3.34,18.34-4.45.46-8.82-.67-13.24-.61-5-10.29-13.6-10.52-21.54-3.02-.21-21.25-1.07-42.52-4.51-63.5-3-18.27-7.68-42.5-15.29-59.27-23.71-52.24-88.67-64.18-140.01-63.16-4.17.08-9.36.31-13.53.28s-9.72-1.2-14.12-1.28c-40.93-.82-87.38,11.87-115.79,43.85-17.52,19.72-24.37,55.28-28.44,80.78-3.45,21.61-3.84,43.48-4.49,65.33-8.35-8.57-18.06-13.33-24.62,0h-.05Z"/>
  <path class="st0" d="M458.8,1369.25v21.15c0,.62-3.26,8.55-3.95,9.68-4.55,7.45-15.29,14.03-23.98,12.51-3.5-17.48-18.25-29.63-35.67-28.58v-16.72c20.67,5.39,42.69,7.14,63.6,1.97h0Z"/>
</svg>