<?xml version="1.0" encoding="UTF-8"?>
<svg id="Layer_1" xmlns="http://www.w3.org/2000/svg" version="1.1" viewBox="0 0 595.28 841.89">
  <!-- Generator: Adobe Illustrator 29.8.1, SVG Export Plug-In . SVG Version: 2.1.1 Build 2)  -->
  <defs>
    <style>
      .st0 {
        fill: #1b150f;
      }

      .st1 {
        fill: #744712;
      }

      .st2 {
        fill: #181006;
      }

      .st3 {
        fill: #180f07;
      }

      .st4 {
        fill: #3d571d;
      }

      .st5 {
        fill: #694212;
      }

      .st6 {
        fill: #fafefa;
      }

      .st7 {
        fill: #d7c1a2;
      }

      .st8 {
        fill: #b37237;
      }

      .st9 {
        fill: #150b03;
      }

      .st10 {
        fill: #7b4a13;
      }

      .st11 {
        fill: #030302;
      }

      .st12 {
        fill: #c0712b;
      }

      .st13 {
        fill: #231906;
      }

      .st14 {
        fill: #b47639;
      }

      .st15 {
        fill: #b08956;
      }

      .st16 {
        fill: #b6a189;
      }

      .st17 {
        fill: #130a03;
      }

      .st18 {
        fill: #d6921d;
      }

      .st19 {
        fill: #9e240b;
      }

      .st20 {
        fill: #1b1106;
      }

      .st21 {
        fill: #1a0b04;
      }

      .st22 {
        fill: #5c3b11;
      }

      .st23 {
        fill: #cf8848;
      }

      .st24 {
        fill: #d6c1a3;
      }

      .st25, .st26, .st27, .st28 {
        fill-rule: evenodd;
      }

      .st25, .st27 {
        fill: #fff;
      }

      .st26 {
        fill: #7f0a00;
      }

      .st29 {
        fill: #d6bfa0;
      }

      .st30 {
        fill: #1d1708;
      }

      .st31 {
        fill: #9a230a;
      }

      .st32 {
        fill: #1a1203;
      }

      .st33 {
        fill: #ad3112;
      }

      .st34 {
        fill: #211905;
      }

      .st35 {
        fill: #394a57;
      }

      .st36 {
        fill: #2d2613;
      }

      .st37 {
        fill: #0f0802;
      }

      .st38 {
        fill: #110c03;
      }

      .st39 {
        fill: #271c06;
      }

      .st40 {
        fill: #3f591d;
      }

      .st27 {
        stroke: #000;
      }

      .st41 {
        fill: #40581d;
      }

      .st42 {
        fill: #201905;
      }

      .st43 {
        fill: #4f330e;
      }

      .st44 {
        fill: #201805;
      }

      .st45 {
        fill: #fdfdfc;
      }

      .st46 {
        fill: #171006;
      }

      .st47 {
        fill: #19140a;
      }

      .st48 {
        fill: #6e4417;
      }

      .st49 {
        fill: #beab91;
      }

      .st50 {
        fill: #394b57;
      }

      .st51 {
        fill: #b37036;
      }

      .st52 {
        fill: #1a150b;
      }

      .st53 {
        fill: #5a3203;
      }

      .st54 {
        fill: #6f4416;
      }

      .st55 {
        fill: #3e591e;
      }

      .st56 {
        fill: #140e06;
      }

      .st57 {
        fill: #25241f;
      }

      .st58 {
        fill: #261b05;
      }

      .st59 {
        fill: #855822;
      }

      .st60 {
        fill: #020101;
      }

      .st61 {
        fill: #26241f;
      }

      .st62 {
        fill: #fefefe;
      }

      .st63 {
        fill: #3a5d78;
      }

      .st28 {
        fill-opacity: 0;
      }

      .st64 {
        fill: #384b5a;
      }

      .st65 {
        fill: #130a02;
      }
    </style>
  </defs>
  <path class="st25" d="M430.63,744h0c56.29,3.63,110.47-17.06,139.64-53.28,29.16-36.22,28.06-81.64-2.82-116.95h0c31.71-14.04,52.64-38.44,56.58-65.78,3.94-27.34-9.78-54.42-36.87-73.06h0c28.79-12.04,47.25-34.3,48.9-58.9,1.51-24.6-14.01-47.98-41.11-61.99h0c29.98-20.94,41.16-53.02,28.76-82.19-12.4-29.17-46.32-50.43-86.99-54.41h0c-10.34-23.94-34.29-43.37-65.33-53.23-31.03-9.86-66.49-9.17-96.94,1.94h0c-43.26-22.37-99.11-25.93-146.88-9.35-47.78,16.59-80.26,50.88-85.19,90-45.66,1.96-86.39,22.17-106.64,52.91-20.1,30.73-16.52,67.19,9.58,95.26h0c-54,14.32-92,50.56-97.9,92.97-5.75,42.41,21.73,83.46,70.77,105.46h0c-21.6,29.88-26.22,64.9-12.75,97.29,13.46,32.39,43.97,59.23,84.48,74.65h0c-2.77,29.8,19.55,57.7,55.93,69.86,36.4,12.16,79.17,5.98,106.95-15.49h0c22.46,25.7,64.78,37.64,104.7,29.67,39.92-7.97,68.56-34.09,70.85-64.71l2.13-.68h.15Z"/>
  <g>
    <path class="st28" d="M528.86,286.7c.89-1.1,1.63-2.26,2.21-3.48M488.8,281.79h0c-.46-1.25-.75-2.52-.89-3.82M459.46,268.56c-.06-6.07,4.13-11.63,10.79-14.28M444.81,239.05c1.08,2.07,2.72,3.89,4.8,5.35M456.43,219.26h0c-.19.83-.26,1.67-.25,2.52"/>
    <path class="st28" d="M455.02,307.87v249.89"/>
    <path class="st28" d="M499.82,432.82h-89.61"/>
    <path class="st28" d="M499.82,501.58l-92.27-17.78"/>
    <path class="st27" d="M199.54,598.82l.77-282.25,201.33-39.97-51.86,402.22-150.25-80h0Z"/>
    <polygon class="st27" points="559.99 619.73 350.64 678.7 350.3 307.14 553.52 318.14 559.99 619.73"/>
    <polygon class="st26" points="350.3 307.14 187.12 328.58 358.74 157.81 569.05 325.29 350.3 307.14"/>
    <g>
      <path class="st32" d="M320.1,645.9c-.14,3.15-.22,6.4-.25,9.72-.01.91.2,4.62-.24,5-.16.13-.42.06-.5.11l.51-2.54v-322.33l-.51-1.08c.17.1.49-.09.7.41.19.43.27,1.6.31,2.13-.05,102.86.02,205.73-.01,308.58h0Z"/>
      <polygon points="238.72 354.46 238.97 531.53 238.47 531.17 238.46 355.29 238.72 354.46"/>
      <path class="st39" d="M319.85,655.61c.03-2.79-.04-5.59,0-8.39,0-.41-.16-1.08.25-1.33,0,2.79.04,5.59,0,8.39,0,.41.16,1.08-.25,1.33Z"/>
      <path class="st59" d="M317.13,335.74v324.25l-76.28-36.69-.12-61.99c.26-.27,5.93,2,6.71,2.32,3.27,1.31,7.72,2.96,10.72,4.6,3.94,2.18,5.94,5.74,10.28,7.46,4.67,1.85,7.75,1.28,9.92-3.28,1.99-4.2,4.43-11.48,5.75-16.02,1.85-6.38,3.37-18.55-.36-24.33-3.17-4.91,13.44,18.7,11.32,22.77-2.46,4.75-30.6,39.63-35.85,42.41-3.3,1.75-3.62-19.25-6.18-21.2-5.05-3.85-5.82-2.66-10.92-6.46-1.32-1.37-1.15-38.2-1.13-39.73.01-1.4-.02-2.75-.27-4.13l.04-170.25,76.38-19.71h0Z"/>
      <path class="st43" d="M317.36,335.26l1.46.52.05,323.14c.07.88-.91.98-1.51,1.32v-324.97h0Z"/>
      <path class="st58" d="M306.66,483.04s.77.14,1.06.3c2.18,1.24,2.28,5.35.55,6.99-.27.26-1.61.93-1.61,1.1v145.72l-58.26-24.16c-.49-.67-.19-9.1-.22-10.72-.22-10.41-.53-20.93,0-31.34.05-.99-.24-4,.22-4.6.22-.28.49-.11.76-.14l.37,45.94,55.63,23.09v-143.65c-.49.18-2.61-.21-2.75-.13s-1.15,1.9-1.59,2.33c-1.31,1.25-4.84,2.29-6.24.97-3.51-3.31-4.34-9.99-1.57-13.94,1.76-2.51,5.68-2.91,7.92-.77.63.61,1.65,3,1.99,3.16.44.21,2.24-.02,2.24-.13v-129.8l-55.76,12.79.03,163.33-.51,6.67c-.46.6-.69-1.15-.71-1.37-.38-3.63-.32-7.5-.29-11.16.25-32.34.04-64.82,0-97.21-.03-20.43,0-40.83.29-61.23l58.45-13.16v131.13h0Z"/>
      <path class="st5" d="M296.39,479.94c6.22-1.24,7.04,11.24,2.53,13.41-.83.4-2,.77-2.86.41-4.11-1.71-4.67-12.83.32-13.82h0Z"/>
      <path class="st22" d="M303.17,484.74c2.03-.16,4.89-.82,4.99,2.07.11,3.03-2.77,3.4-5.23,3.27-.1-.26.25-.53.25-.61v-4.74h0Z"/>
    </g>
    <polygon points="350.59 307.44 350.34 307.42 358.41 158.14 358.66 158.15 350.59 307.44"/>
    <path class="st30" d="M105.88,445.62c2.79,7.19,4.37,15.38,5.75,22.94,0,.82-.91.91-.93,1.09.68,3.73.84,7.57,1.55,11.29.82,4.33,3.06,8.67,4.21,13.08,2.29,8.8,3.02,18.39,3.36,27.47.14,3.8.16,6.21-.65,9.99-.23,1.06-1.2,3.69-1.18,4.49.02,1.15,1.16,3.17,1.09,4.48.25.05.28-.33.32-.5.16-.73.11-2.36.44-2.87.45-.71,2.12-.77,2.2-.86.12-.12.35-2.84.44-3.32.34-1.84.72-4.07,1.35-5.82,1.91-5.36,5.87-4.36,5.2,1.09,1.1-2.05,5.01-6.41,7.6-5.11,2.91,1.46-.77,7.57-1.74,9.5.74-.26,1.22-.93,1.97-1.26.68-.29,1.29-.49,1.98-.16,2.44,1.17-.07,5.78-.95,7.41-2.53,4.68-5.85,9.14-8.6,13.7,2.11,1.1,2.52,2.34,2.43,4.59-.12,2.89-.67,5.62-.56,8.62s.96,5.97,1.13,8.96c.3,5.09-.55,14.61-4.66,18.15-7.81,6.75-19.75,1.12-28.27-1.19l-1.5,14.19c.14,1.77-.17,3.76,0,5.5.36,3.55,4.96,5.99,7.8,7.52,2.12,1.14,9.55,4.15,10.6,5.49,3.5,4.48-4.9,5.91-7.81,5.96l-2.05-.18c-3.89-.17-7.2-1.42-10.93-1.96-3.41-.49-11.29-.09-12.42-4.26-1-3.72,1.32-6.91,1.59-10.37.67-8.68-3.26-17.03-4.09-25.47-.14-1.43-.14-3.04-.19-4.49-1.56.02-3.11.05-4.65-.18.2,2.1.09,4.23.18,6.33.15,3.5.92,7.24-.82,10.54-1.52,2.88-4.78,2.57-7.44,3.66-.25.29-.53,2.48-.62,3.05-.36,2.22-.79,5.46-.59,7.66.56,5.93,9.76,10.03,13.76,13.56,1.54,1.36,2.56,2.82,1.01,4.66s-5.04,2.48-7.33,2.58c-.86.18-1.75.17-2.6,0-3.07-.12-5.71-.76-8.55-1.93-2.52-1.04-6.74-2.95-9.06-4.27-3.44-1.95-3-6.13-2.05-9.42.35-1.22,1.15-2.52,1.26-3.71.35-3.8-.53-7.69-.96-11.43-3.3-.67-6.65-1.19-9.91-2.06-3.61-.97-12.97-3.85-13.5-8.14-.78-6.33,1.86-14.15,2.42-20.53.34-3.84-.21-7.84,0-11.73.11-2.04.52-4.23.92-6.24-.02-.3-2.06-1.91-2.48-2.47-2.12-2.81-.89-4.83,2.31-5.58-2.12-1.64-5-2.88-6.11-5.53-.78-1.87-.61-4.41,1.83-4.65.23-.27-.7-1.26-.89-1.59-1.05-1.84-1.78-3.43-1.5-5.62.37-2.95,3.56-4.2,6.16-2.99.37.17,1.26.99,1.44.87.57-1.9,2.48-2.19,4.16-1.44,2.23.99,3.53,3.8,3.66,6.11.04.78-.41,3.72-.29,3.95.04.08.22.22.28.18,1.01-5.91,1.34-11.93,2.41-17.84-2.02-7.28-5.2-14.29-6.6-21.74s-1.17-14.95-1.19-22.43c-.09-.3-1.14.2-1.14-1.3-.02-4.14.95-10.05,1.53-14.27,1-7.34,1.72-14.96,7.5-20.28"/>
    <path class="st36" d="M73.89,635.2c-.62.31-1.94.31-2.6,0,.83.03,1.77.04,2.6,0Z"/>
    <path class="st36" d="M108.48,630.06c-.63,0-1.56.14-2.05-.18.65.03,1.55-.17,2.05.18Z"/>
    <path class="st23" d="M76.92,447.94c1.49.81,9.25,4.79,10.41,4.52.88-.2,1.75-3.34,1.91-4.18"/>
    <path class="st35" d="M109.78,515.71c.2,3.09.73,6.17.93,9.26.71,11.05.77,22.61.94,33.71.09,6.2.05,12.39.15,18.58-7.47,3.16-16.14,4.22-24.24,4.79-3.82.27-7.62.43-11.45.11-.19-.13-.16-.36-.18-.55-.4-3.28.03-8.91.38-12.29.21-2.01,1.04-4.91.94-6.79-.08-1.46-1.03-2.02-2.25-2.57,1.7-6.62,4.98-13.72,4.28-20.69-.21-2.12-1.25-3.69-3.61-3.37-5.55.74-9.9,13.21-12.19,17.49-.09.17-.09.44-.37.46l-1.65-9.69c3.14-.98,1.99-1.81,1.67-4.18-.43-3.16-.49-5.9-1.46-9-1.24-3.95-3.85-7.42-4.33-11.59,2.2.38,4.4.81,6.62,1.08,11.88,1.4,28.78.91,40.19-2.68,1.91-.6,3.7-1.55,5.62-2.06Z"/>
    <path class="st7" d="M76.3,562.81c-.41,2.4-.84,4.84-1.09,7.26-.58,5.67-.53,11.86-.4,17.58.1,4.44,2.11,12.18-3.49,13.96-4.99,1.59-10.29,2.97-15.54,2.41-5.93-.63-20.62-3.37-24.77-7.48-1.92-1.91-1.71-3.78-1.57-6.33.33-5.91,2.07-11.7,2.6-17.6-.08-5.33-.45-10.64.59-15.91.08-.2.16-.31.4-.29.44.04,2.77,1.69,3.65,1.92.25.07.47.18.65-.1l5.21-19.06c0,1.89.96,3.38,1.86,4.96l-2.86,15.72c4.69,2.18,9.79,3.31,14.94,3.87h2.05s-.19-25.1-.19-25.1c3.3,7.89,4.04,16.61,5.1,25.03l.49.25c4.13.22,8.43.31,12.36-1.09Z"/>
    <path class="st54" d="M86.88,451.01"/>
    <path class="st54" d="M82.49,436.96c.15.43.93,1.49.83.46"/>
    <path class="st48" d="M56.02,476.69c0,.69.05,1.4,0,2.1-.21,3.44-1.52,7.69-1.3,10.99.09,1.32.57,2.72.72,4.06,1.15,10.13-1.71,21.65,2.41,31.16,2.64,6.11,3.27,7.63,4.15,14.42.09.68.65,2.67.54,3.11-.05.2-1.31.63-1.49.48-.16-.14-1.17-3.42-1.41-4.01-.28-.68-1.04-1.74-1.16-2.34-.16-.77.07-1.68-.32-2.43-.31.3-.34.83-.41,1.24-.58,3.41-.06,7.2-.24,10.67-3.63.37-3.73-4.88-4.79-7.29-.1-.23-.1-.54-.42-.59.32,2.16.81,4.51,1.64,6.54.19.47.66.96.77,1.25.18.44-1.38.3-1.58.27-3.23-.39-2.91-5.1-4.46-7.15-.04,2.35,1.02,4.59,1.77,6.78-3.52-.48-3.48-4.79-4.56-7.33-.51.96-.02,2.7.29,3.74s.84,2.1,1.47,3.04c-2.1-.56-3.56-2.91-4.04-4.91-.74-3.14-.26-7.71.37-10.88.72-3.59,1.41-4.1.56-8-1.47-6.76-4.58-13.42-6.33-20.15-2.29-8.81-2.22-17.55-2.1-26.61,6.68,0,13.35.51,19.89,1.84Z"/>
    <path class="st7" d="M130.6,557.13c-.31,3.35-.59,6.8-.38,10.18.15,2.45.95,4.88,1.12,7.32.28,4.09-.78,13.47-3.64,16.56-3.61,3.9-10.07,4-14.92,3.01-4.43-.91-8.86-2.55-13.21-3.75l.37-8.75c3.04-.55,6.13-1.16,9.05-2.17.81-.28,3.68-1.25,3.91-2.01l-.15-17.28c1.9.02,4.17.42,6.05.19.34-.04.64-.1.76-.46l-6.62-25.38c1.48-.08,2.23-.95,2.23-2.39.54.33.69,1.13,1.01,1.66,2.78,8.46,4.79,17.17,7.16,25.75.13.16.22.22.43.22.62,0,2.86-.79,3.58-1.06,1.16-.43,2.27-.9,3.25-1.65Z"/>
    <path class="st54" d="M98.99,581.87c-.38,1.29-.12,2.77-.18,4.13-.27,6.26-1.47,12.44-1.87,18.69-.15,2.31-.54,6.56.4,8.58,1.6,3.42,7.22,6.01,10.56,7.47-.22,1.85-2.52,2.58-4.17,2.73-3.88.36-15.67-2.1-17.91-5.43-1.12-1.67-.29-2.51-.21-4.18.41-8.2-1.9-14.01-3.3-21.68-.53-2.88-.6-5.74-.8-8.65,5.84-.34,11.7-.71,17.48-1.65Z"/>
    <path class="st54" d="M109.78,470.08c.27,2.21.46,4.45.77,6.66.81,5.68,2.09,8.62,3.78,13.87,2.8,8.7,3.88,18.09,4.38,27.21.23,4.22.39,8.42-.42,12.59-.23,1.16-.71,2.27-.88,3.44l-1.76-3.09c.17-2.07,1.23-4.26.18-6.25l-1.8,8.68c-.11.33-1.74.76-1.83.67-.16-3.2-.14-6.42-.37-9.62-.27-3.65-.6-7.36-.92-11-.58-6.59-1.22-12.84-2.74-19.29-.87-3.7-3.98-11.64-3.51-14.89.37-2.56,2.02-5.29,2.36-7.93.22-.36,2.64-1.16,2.76-1.04Z"/>
    <path class="st54" d="M66.45,603.86c-.41,3.67-1.34,7.76-.93,11.45s6.07,7.74,8.88,9.89c-3.21,5.24-10.49,3.81-14.81.72-1.89-1.35-6.04-5.53-6.14-7.88-.02-.48.29-.99.34-1.47.42-3.95-.24-8.07-.91-11.98,4.59.79,9.16.9,13.57-.73Z"/>
    <path class="st40" d="M42.27,536.42l-3.16,10.44c-.3-4.95-3.71-8.78-4.28-13.56-.31,0-.35.61-.37.82-.06.75.05,1.39.18,2.11-1.14-.93-2.32-1.84-3.72-2.38,1.09,1.26,2.55,2.2,3.63,3.48,1.28,1.52,2.14,3.43,2.83,5.27.37.98.9,2.18.88,3.16-1.03-1.8-3.23-3.21-5.3-3.48l2.69,1.84c.96.79,2.81,3.17,3.04,4.35.21,1.07-.93,3.25-.9,4.44-.98-1.25-2.24-2.13-3.9-2.2.93.9,3.63,2.25,3.5,3.7-.03.36-.6,2.68-.8,2.7-2.22-1.15-7.62-3.92-7.15-6.85.24-1.5,2.88-1.69,4.08-1.39,0-.21.04-.43,0-.63-.24-1.12-3.82-3-4.83-3.85-2.02-1.69-4.58-5.63-.26-6.12.49-.06.93.46,1.37-.29-2.16-1.8-4.76-5.25-3.67-8.2.71-1.92,3.12-2.48,4.85-1.39.45.28,1.51,1.61,1.89,1.58.66-.05.22-2.32,1.85-2.54,3.54-.48,4.98,4.49,4.73,7.23-.09,1.01-.98,2.87.58,3.34,1.22.37,1.27-1.35,2.23-1.58Z"/>
    <path class="st12" d="M64.23,562.79l-.72-6.44c2.29-5.35,4.7-12.42,8.6-16.81,1.01-1.14,4.31-4.21,5.65-2.08,1.56,2.47.12,8.85-.59,11.65-1.13,4.49-2.87,8.83-3.94,13.34-2.92.64-6.01.66-9,.34Z"/>
    <path class="st40" d="M127.26,548.7c.37-.07.32-.37.37-.64.42-2.2,1.08-3.88,2.01-5.9,1.34-2.9,3.22-6.64,5.71-8.67.74-.6,3.18-2.56,3.44-.66s-1.53,4.74-2.46,6.39c-2.4,4.24-5.25,8.24-7.78,12.41-.2.13-2.03-2.61-2.04-3.04.23-2.88,1.5-6.51,1.5-9.33,0-.85-.55-1.37-.54-1.62.02-.34.6-1.11.52-1.59-.18.19-1.35,1.5-1.3.64.04-.75.86-2.8,1.17-3.62,1.09-2.93,3.07-7.03,5.96-8.6,4.6-2.51,2.29,3.45,1.4,5.41-2.78,6.2-7.25,11.86-7.97,18.81Z"/>
    <path class="st36" d="M108.68,621.46c.14-.1,1.16.22,1.41.32,1.03.41,4.12,1.86,4.95,2.45,1.95,1.37.89,3.03-.86,3.85-5.59,2.6-13.64-.49-19.4-1.3-3.08-.43-10.4.04-10.86-4.14-.18-1.62.11-3.31.56-4.86.91,1.11,1.84,2.13,3.1,2.9,4.01,2.44,16.63,5.81,20.34,2.15.4-.39.69-1.32.75-1.37Z"/>
    <path class="st36" d="M53.05,619.44c.11.11,1.07,2.23,1.41,2.73,3.84,5.72,13.66,10.45,19.61,5.06.65-.59.47-1.44,1.56-1.2.36.08,2.84,1.86,3.32,2.23,1.71,1.32,3.17,2.4.87,4.27-2.71,2.22-8.45,1.9-11.76,1.32-4.23-.74-7.58-2.98-11.36-4.75-1.31-.61-2.82-.71-3.85-2.07-1.32-1.75-.92-5.4-.2-7.35.07-.19.09-.53.39-.25Z"/>
    <path class="st33" d="M57.71,553.46v9.16c-3.19-.1-6.63-.64-9.71-1.52-.38-.11-1.24-.21-1.28-.59-.1-.91.74-2.61,1.24-3.38,2.15-3.26,5.97-4.31,9.75-3.68Z"/>
    <path class="st40" d="M126.33,543.94c-.35.74-.17,3.6-.74,3.93-.11.07-.36-.1-.37-.08-.32.5,2.64,4.36,2.89,5.31.17.64.24,2.35-.41,2.72-.36.21-3.68.99-4.05.95l-3.82-13.85,3.07,1.01h3.44Z"/>
    <path class="st41" d="M45.62,560.25c-.41-.06-.98-.2-1.2-.56-.25-.4-.45-2.74-.48-3.38-.18-3.45.32-7.45,1.13-10.81.05-.21.07-.34.27-.47.49.16.8.54,1.29.74.99.4,2.92.34,2.9,1.74-.02,1.47-3.25,1.53-3.52,3.33-.16,1.08.86.22,1.36.22.68,0,1.86.84,2.06,1.47.56,1.78-1.11,2.32-2.06,3.49s-1.52,2.73-1.77,4.22Z"/>
    <path class="st50" d="M57.52,546.87l.19,5.5c-2.37-.42-4.87-.03-7.06.92-.13-1.57-1.06-3.05-2.79-3.12l1.36-.76c1.05-.72,1.41-1.43,1.24-2.72l2.7.57,4.37-.38Z"/>
    <path class="st40" d="M122.98,536.24c.71-2.95.87-8.52,2.79-10.9.89-1.1,1.91-1.09,2.19.41.46,2.52-.5,6.59-1.36,9.02-1.01,2.86-.99,1.38-3.62,1.47Z"/>
    <path class="st18" d="M116.07,549.77s-.58.31-.81.58c-1.5,1.74-1.61,4.56-2.31,6.7-.08.24,0,.57-.38.64l-.19-14.48,2.14.36c.11.87,1.77,5.82,1.54,6.2Z"/>
    <path class="st19" d="M126.89,540.46c-.52,1.5.3,2.26-1.63,2.52-1.04.14-4.64-.15-4.88-1.33-.08-.39.15-2.65.47-2.66,1.62,1.52,3.94,1.65,6.04,1.46Z"/>
    <path class="st29" d="M118.52,559.33h-4.56c-.09,0-.63-.23-.84-.27.66-1.2.81-2.64,1.21-3.94l3.63,1.92.56,2.29Z"/>
    <path class="st31" d="M121.81,537.19c1.27-.28,4.19.08,4.97,1.25,1.51,2.26-3.46,1.28-4.55.82s-2.1-1.71-.42-2.07Z"/>
    <path class="st64" d="M42.27,535.32l-.55-.09,1.76-13.29c1.19,3.04-.29,6.23-.78,9.31-.21,1.35-.27,2.71-.43,4.07Z"/>
    <path class="st40" d="M117.59,555.66c-.15.16-2.65-1.27-2.76-1.59-.31-.9.78-2.79,1.55-3.36l1.21,4.95Z"/>
    <path class="st16" d="M128.93,556.95c-.05-1.01.1-2.02.19-3.02.02-.2-.11-.61.27-.46.16.06.99.95,1.07,1.14.58,1.37-.51,1.77-1.53,2.34Z"/>
    <path class="st55" d="M113.1,541.89c-.15.1-.51,0-.72.03l-.18-5.13,1.29,3.41c.02.29-.27,1.62-.39,1.69Z"/>
    <path class="st23" d="M97.51,437.37c5.37,2.84,6.65,6.24,8.41,11.68,2.08,6.4,3.69,12.97,4.61,19.64l-3.36,1.21c.68-7.88-3.93-14.48-7.23-21.19-.53-1.08-.85-2.24-1.48-3.31-.07-.12-.42-.76-.41-.15,2.16,8.62,9.33,16.03,7.97,25.45-.45,3.15-2.61,6.85-2.59,9.91.03,3.3,2.75,10.02,3.6,13.69,1.5,6.5,2.36,13.15,2.7,19.82-.09.28-3.44,1.69-4.02,1.91-11.23,4.23-30.07,4.82-41.96,3.32-1.11-.14-5.79-.87-6.5-1.29-.55-.32-.26-1.78-.31-2.44-.49-6.62.24-13.43-.18-19.98-.13-2.11-1.1-4.66-1.1-6.57,0-3.55,1.59-7.86,1.51-11.53.04-.63.62-.43.98-.86.71-.87,1.6-7.24,1.76-8.71.9-8.19.8-15.18-5.76-21.07l-3.16-2.29c2.01,1.92,3.96,3.69,5.47,6.06,2.8,4.39,3.08,8.38,2.71,13.45-.29,3.96-.88,7.96-1.87,11.81-7.32-1.54-14.8-2.24-22.3-2,.49-6.26,1.21-12.54,2.08-18.75,2.83-20.2,22.72-25.14,25.28-28.69"/>
    <path class="st24" d="M127.63,556.95c.03.29.05.42-.19.64-.26.25-3.4,1.15-3.53,1.01l-.19-.91,3.9-.73Z"/>
    <path class="st4" d="M43.39,556.58c-.03.98.1,1.99.37,2.93-1.59-.02-1.15-1.45-.79-2.53.1-.31-.08-.48.42-.4Z"/>
    <path class="st49" d="M74.45,562.26l.19-1.28c.17-.17.98.44,1.11.64l-1.3.64Z"/>
    <path class="st56" d="M75,505.64c.03.34-.61.18-.81.16-4.71-.49-10.67-4.24-13.69-7.77-.4-.47-.94-1.14-1.12-1.74,4.01,4.44,9.52,8.44,15.62,9.35Z"/>
    <path class="st3" d="M94.9,476.68c-.63.64-1.75,1.02-2.61,1.37-4.7,1.9-9.99,2.85-15.06,3.02l6.36-.97c3.87-.81,7.67-1.9,11.31-3.43Z"/>
    <path class="st52" d="M58.64,583.89c.03.35-.59.16-.79.13-1.46-.22-3.44-.93-4.84-1.46-5.11-1.96-10.64-5.81-13.68-10.34-.58-.87-1.22-1.99-1.52-2.99l2.78,3.76c4.8,5.2,11.11,9.13,18.04,10.9Z"/>
    <path class="st47" d="M117.96,578.02l1.55-.95c2.58-1.86,4.72-4.17,6.52-6.77l1.78-3.1c-1.28,4.67-5.12,9.28-9.85,10.81Z"/>
    <path class="st2" d="M70.91,556.95c-1.83-1.61-3.43-3.87-3.34-6.41l.65,1.83.92,1.84,1.77,2.75Z"/>
    <path class="st46" d="M68.12,562.44c-1.81-1.26-2.67-3.54-2.6-5.68l.71,2.14,1.89,3.54Z"/>
    <path class="st20" d="M72.96,551.45c-.35.08-.44-.19-.65-.36-1.81-1.5-2.62-3.54-2.69-5.86l.47,1.64c.62,1.72,1.64,3.24,2.88,4.58Z"/>
    <g>
      <path class="st53" d="M304.02,489.27c-.48.05-.21-.56-.18-.85.28-3.04.06-5.08-1.1-7.9,3.01,2.02,2.05,5.75,1.28,8.75Z"/>
      <path class="st15" d="M208.32,496.69l1.8-1.59c-.18,1.21-.5,2.08-1.8,1.59Z"/>
    </g>
    <path class="st39" d="M63.61,427.81c.6-4.03,27.83,8.62,26.71,4.73,0-.27,1.5-.17,1.77.03l.36-.28c.53.12.76.07.42-.39.79-.5,1.73-.63,2.58-1,8.18-3.62,16.23-12.63,15.56-21.45-.13-1.71-1.13-4.34-1.05-5.84.04-.92,1.39-3.13,1.74-4.23.8-2.48.92-5.26.78-7.84-.03-.48-.39-.79-.4-1.14-.03-1.13.2-2.77.14-3.85-.04-.75-.66-1.55-.77-2.2-.25-1.56.28-2.32-.81-3.92-.76-1.12-1.6-1.01-2.22-1.63-.42-.42-.8-1.61-1.2-2.19-2.49-3.64-9.85-6.51-14.19-7.77-7.47-2.18-15.19-1.63-22.37,1.17-2.01-2.57-5.85-4.36-9.13-2.82-.38.17-1.15.87-1.32.91-.23.04-1.6-.62-2.1-.7-1.99-.29-3.65.35-4.94,1.72-.2.21-.51.87-.59.91-.31.17-1.79-.02-2.36.04-2.82.3-5.5,2.4-6.1,5-.13.56-.05,1.97-.36,2.39-.12.17-1.16.44-1.55.69-2.78,1.75-3.33,5.72-1.93,8.39.14.28.62.6.64.76.04.25-.98,1.36-1.18,1.77-1.71,3.69.62,8.18,5.36,7.43-1.15,3.07,2.17,7.02,5.63,5.44.21,1.72,2.04,2.86,3.71,3.25.76.17,2.92.2,3.17.35.15.09,1.45,2.53,1.78,3,1.26,1.8,3.49,4.19,5.73,4.8-.08,3.51-.32,9.52-2.84,12.32-1.55,1.72-6.92,3.54-9.32,4.91-10.61,6.07-16.14,13.59-17.17,29.28"/>
    <path class="st38" d="M103.31,444.44c-2.09-4.75-5.16-9.33-10.35-11.52l-.48-.62c.14-.11.26-.29.42-.39h0c9.66,3.46,11.8,13.2,15.33,21.18"/>
    <path class="st23" d="M90.03,448.83c2.68-4.97-.67-11.74-.3-16.72,1.3-.1,1.53-.26,2.71.19,9.35,3.61,11.48,13.14,14.91,20.99"/>
    <path class="st23" d="M36.83,459.61c-.41-22.31,18.15-29.18,24.24-31.58,9.52,7.08-8.79,8.76-6.73,14.92"/>
    <path class="st1" d="M84.08,443.73c-7.61-5.15-14.79-10.81-22.03-16.39.83-.5,1.44-1.27,1.96-2.06,2.82-4.32,2.71-10.18,2.21-15.04.14-.75,1.43-.79,1.46-1.66-.66.07-1.2.56-1.86.69-6.69,1.25-11.76-14.43-3.85-15.45,4.57-.59,5.83,3.05,6.73,6.33.05.2-.08.62.34.45.6-.23.56-1.31,1.04-1.76.77-.71,2.39-.79,3.24-2.03.52-.75.26-1.56.64-2.12.2-.28,1.1-.67,1.55-1.08,1.88-1.73,1.23-2.37,1.57-4.37.29-1.72,3.37-1.49,4.41-3.27.42-.73.44-2.03,1.3-2.49.8-.41,2.27-.16,3.44-.87,1.09-.67,1.2-2.49,2.24-2.77,1.81-.5,3.26,1.22,5.37-.24.51-.35,1.25-1.52,1.7-1.52.53,0,1.71,1.1,2.47,1.14.92.06,1.88-.76,2.09-.75.14,0,.41.39.67.49,1.48.61,2.2.62,3.54.96.74.19,1.6,1.13,1.88,1.19.65.16,1.42-.63,1.99.66.27.61-.1.98.04,1.31.1.25.81.65,1.04.98.18.25,1.43,2.18,1.48,2.31.33.96.23,3.3.55,4.54.15.6,1.34,1.76.16,2.18-1.09-2.95-6.85-2.75-6.88.48h0v-.02c2.47-.99,5.21-2.1,6.89.68.86,1.42-.92,5.57-1.47,7.1-.36-.02-.19-.58-.37-.91-1.53-2.82-4.83-1.57-5.58,1.1-.58,2.05.26,6.7,3.4,5.5l2.14-1.99c.44,3.75,1.24,6.68-.25,10.36-2.1,5.16-8.01,11.52-13.57,13.6-7.44,2.79-15.86-1.24-21.19-6.06,2.37,5.16,8.67,8.22,14.41,9.06.38,1.1.73,2.22.96,3.34"/>
    <path class="st45" d="M109.15,401.18c-2.93-1.03-4.96,4.02-2.92,5.73-.37.29-1.09-.6-1.29-.93-.8-1.31-.84-3.5-.07-4.81,1.2-2.07,3.42-2.54,4.28,0h0Z"/>
    <path class="st13" d="M89.71,397.33c7.31-1.26,5.91,10.46-.25,10.47-3.5,0-4.79-4.08-3.87-6.74.5-1.41,2.52-3.46,4.12-3.73h0Z"/>
    <path class="st34" d="M101.86,420.62c-.24,1.04-1.78,2.56-2.91,2.82-2.89.68-8.09-1.24-10.22-3.11-.42-.37-3.17-3.65-3.12-3.88.04-.22.48-.32.73-.32.79,0,3.28,2.17,4.21,2.7,1.78,1.02,4.31,1.88,6.41,1.99,1.65.08,3.26-.35,4.9-.2h0Z"/>
    <path class="st44" d="M95.19,410.71c-.75,1.9,1.91,4.85,4.04,4.66.79-.07,4.42-1.57,5.12-2.05,2.64-1.77-.16-3.46-.98-5.28-.25-.56-.57-1.52-.64-2.12-.03-.21-.2-.89.19-.85.06,2.82,5.87,6.46,2.37,8.91-.81.56-5.46,2.2-6.41,2.15-2.1-.1-4.67-2.34-4.52-4.36.03-.44.25-1.13.85-1.07h0Z"/>
    <path class="st39" d="M83.3,394.95c-.31-.33,2.33-2.72,2.72-3,2.27-1.58,5.32-2.18,8.02-1.28.87.29,2.4,1.1,1.87,2.14-.48.95-1.51-.44-2.12-.74-3.31-1.64-8,.83-10.5,2.88h0Z"/>
    <path class="st42" d="M67.04,401.95l-1.37-2.51c-2.04-3.25-3.51-2.77-3.84.95-.38.45-.89-2.92.22-3.79,2.53-1.98,5.28,3.49,4.99,5.34h0Z"/>
    <path class="st42" d="M66.2,401.95c-1.66-1.45-2.27.36-2.06,1.83.04.32.96,1.93.3,1.67-1.47-.57-1.57-4.29-.05-4.91,1.04-.42,1.9.46,1.82,1.41h0Z"/>
    <path class="st62" d="M93.93,401.76c-3.36-4.01-7.62,4.52-2.71,5.06-1.66,1.27-3.89.6-4.88-1.19-1-1.82-.65-4,.62-5.6,2.67-3.37,7.15-2.94,6.97,1.73h0Z"/>
    <path class="st10" d="M99.88,421.59c.05,0,.36-.41.53-.1-2.04,2.32-6.79.85-9.16-.41-.32-.17-3.14-2.03-2.72-2.41,1.08.67,2.13,1.39,3.33,1.84.68.25,3.5,1.07,4.06,1.07,1.27,0,2.72.09,3.96,0h0Z"/>
  </g>
  <path d="M221.59,650.81c-.27-.06-.59-.44-.67-.44h-5.78l3.23-1.29c.29-.32.44-1.28.5-1.76,1.64-13.09,2.29-27.78,3.25-41.08.98-13.49,2.22-27.65,2.7-41.09.06-1.64-.3-9.41.25-10.08.35-.42,1.94-.67,2.05-1.42-1.4-12.17-2.05-24.41-2.04-36.67.17-.2,4.17,2.04,4.05,2.96,1.47.32,2.81.51,4.28-.21,1.3-.64,2.46-.66,3.8-.12,1.36.56,2.6,1.4,3.86,2.17,1.21.74,2.42,1.28,3.71,1.81,2.5,1.03,5,2.07,7.58,2.85,2.41.72,5.04,1.4,7.49.53,5.23-1.86,8.97-7.41,12.72-11.44,4.42-4.74,7.92-10.34,10.96-16.17,1.45-2.78,2.8-5.63,4.09-8.5.66-1.46,1.17-3.35,2.05-4.66.16-.23.55-.68.88-.87.03-.15.07-.29.14-.42,0-.11.02-.23.03-.35,0,0,0,0,0,0,0,0,0,0,0,0,.01-.13.03-.25.05-.38.2-1.29,1.45-1.25,2.16-.57.31-.17.62-.35.92-.55.12-.08.25-.14.37-.18,1.08-1.11,1.89-2.68,2.99-3.71,2.13-1.98,5.45-2.29,7.09-4.87,2.73-4.3.94-10.16.17-14.78-.08-.47-.1-1.04-.26-1.48,0-.02-.02-.04-.02-.06-.01,0-.03-.02-.05-.04-.18-.17-.43-.29-.65-.4-.82-.44-1.44-.62-1.95-1.5-.48-.81-.73-1.75-1.19-2.56-.5-.88-1.28-1.23-2.19-1.53-5.75-1.85-10.08,4.89-12.29,9.49-1.34,2.77-2.29,5.68-3.28,8.6-.89,2.61-1.67,5.44-3.36,7.61-1.5,1.92-3.59,3.15-5.09,5.08-1.12,1.44-2.15,2.95-3.22,4.43-2.6,3.64-5.26,7.31-8.51,10.32-2.7,2.5-6.11,4.87-9.85,4.51-4.8-.46-9.4-4.23-13.02-7.34-3.57-3.06-6.6-6.87-10.56-9.33-.35.05-.72-.05-1.05-.35-.24-.22-.49-.43-.75-.63-.07-.03-.14-.07-.21-.11-.27-.12-.45-.3-.56-.5-2.5-1.86-5.31-3.26-7.33-5.78-.61-.76-.47-2.17.59-2.4,2.85-.63,5.77-2.16,8.68-1.37.85-.77,1.78-1.22,2.88-1.53.17-.05.33-.06.48-.05,1.79-1.92,2.75-5.48,3.34-7.53,3.05-10.67,3.49-21.74,2.3-32.77-.32-2.94-.72-5.87-1.13-8.8-.41-2.96-.93-5.95-2.02-8.72-1.99-5.09-5.08-9.61-6.84-14.81-7.19-10.44-17.77-23.04-30.57-21.79-2.54.25-6.03,2.11-8.1,2-1.63-.09-4.19-1.95-6.24-2.25-24.52-3.56-38.54,36.52-42.7,56.5-2.29,11.04-4.49,24.54,3.15,33.82.21.25,1.33,1.63,1.6,1.3-.71-3.46-.94-6.95-.8-10.49.01-.35-.2-1.07.27-1,1.63,8.09,6.75,15.22,14.17,18.04,4.73,1.8,9.39,1.72,14.3.94l-6.72,3.3c-11.06,6.55-13.7,21.02-19.07,32.23-.09,1.65,3.27,2.63,3.39,3.41-.75,5.34-1.93,10.6-2.76,15.92-1.8,11.48-3.12,23.92-3.57,35.56-.3,7.67-.18,14.31,5.64,19.55,1.63,1.47,1.43.74,2.69,1.13,1.03.32,4.24,2.07,5.11,1.46.44-.3.06-1.57,1.32.05.2,4.44.56,8.88.82,13.3.15.74.5,1.02.81.29l.25-2.15c-.92-15.17-1.45-30.29-1.57-45.36-.71-1.52-.41-1.69.89-.5,20.19,6.54,43.25,7.29,63.53,1.23l.56-.7c-1.46,27.38-3.3,54.89-5.43,82.34-.26,3.35-.62,6.75-1.1,9.87-7,2.56-15.13,3.13-21.67.29l-5.32-70.89c1.04.09,3.3.09,4.15-.02.15-.02.21-.35.24-.57.72,1.19,4.52-.86,2.39-1.65-6.01.25-11.95-.05-17.81-.91-.89.56-.75.76-.18,1.43.81.95,8.24,1.88,9.72,1.48-2.03,21.16-3.8,42.61-5.1,63.75.2,2.59-.19,4.51-1.16,5.78-1.07.3-1.81.77-2.23,1.42-1.12.78-.22,1.1.81.57.95-.37,3.18-.61,3.49-1.88,1.43-19.93,3.24-39.84,4.31-59.78l.53-2.16,4.83,64.48c.18.8,5.12,1.37,5.66,1.77.41.31.33,4.25.12,4.9-.17.53-.84,1.23-1.14,2.08-1.24,3.46-2.25,11.34.34,14.16,7.05,7.66,31.3-.79,31.57-12.23.13-5.43-4.89-8.22-9.15-9.18Z"/>
  <path class="st11" d="M160.08,603.23c.77.24.66.44,0,.86q-.38.75,0,0c1.28,7.9,1.74,16.14,1.34,24.15q-.4,1.09,0,0c.58-.28.75.03.81.63l.78,17.79c5.25,1.4,10.73,2.26,16.13,1.07l1.08.34c-.13.77.17.59.81.57-.36.14-1.29.62-.81,1.15.07.08,1.54-.03,1.98.04,3.78.59,9.7,3.26,9.95,7.97.38,7.07-10.66,15.23-16.64,15.85-10.61,1.1-14.86-4.1-11.41-14.95.22-.19.48-.28.81-.29l.39.5c-5.18,12.66,10.87,11.16,17.33,7.32,6.4-3.8,13.36-9.99,2.78-14.26-6.09-2.46-5.36-.18-2.73,4.3.21,1.69-.68,1.51-2.66-.53l-.34-.21c-.59-.03-.59-.61,0-1.76l-.27.03c-.62.33-.9-.15-.84-1.45l.07-2.47c-3.85.71-7.78.59-11.63-.02.13,1.46.11,2.92-.09,4.37l-.67.14-.36-.08c.19-1.05.13-1.98-.18-2.8.03-.85.01-1.72-.03-2.56-.6-.12-3.78-.94-3.96-1.23-.49-.8-.24-5.15-.32-6.42-.78-12.79-1.4-25.59-2.15-38.38l.81.29Z"/>
  <path d="M165.72,651.53c.91-.28.51,1.93.54,2.87.46.2.62.5.53.99,3.76,1,8.85,1.5,12-1.41l.63-.15c.07-.32-.05-.79,0-1.15,1.1.55.17,1.91.27,2.87l-.22.82c-4.06,2.32-8.52,2.77-13.39,1.34-.39.42-.78.66-1.16.72l-.67.57-.13-.28c.9-2.82,1.49-3.95,1.61-7.19Z"/>
  <path class="st6" d="M204.94,475.31c-.06,1.36-.49,2.47-1.34,3.45,1.83.11,3.66-.17,5.43-.66.76-.21,2.69-1.22,3.03-1.24.43-.02,4.42,1.78,5.15,2.13,9.66,4.65,17.92,12.7,26.32,19.45-2.47,7.75-6.26,15.79-11.99,21.29l-14.24-8.78c.5,1.43,6.75,4.75,6.94,5.36l.31,17.2c.49,6.67.98,13.33,1.85,19.96-2.33.96-4.46,2.09-6.9,2.82-14.21,4.23-44.66,3.86-58.42-2-.58-.25-3.72-1.81-3.97-2.09-.15-.17-.29-.29-.25-.55,1.7-9.02,3.22-18.16,4.01-27.34.8-9.33.55-18.75,1.88-28.02-.74-.26-.63,1.13-.72,1.67-1.14,6.89-1.45,14.05-1.7,21.04-2.45-.45-4.81-1.25-7.08-2.34-.93-.45-5.87-3.18-5.78-4.08,5.11-10.24,7.67-24.01,17.34-30.61,3.47-2.36,10.21-5.27,14.2-6.36,2.38-.65,2.67.83,4.68,1.86,5.49,2.82,13.8,1.67,19.22-1.01.38-.19,1.85-1.34,2.01-1.15Z"/>
  <path class="st63" d="M160.08,603.23c-.66-12.73-1.55-25.63-1.89-38.37-.1-3.59.09-7.2.01-10.79,7.26,2.86,14.98,4.42,22.7,5.17,10.63,1.03,22.43.93,32.96-.94,3.4-.61,6.96-1.42,10.15-2.79.04,13.01-1.26,25.99-2.14,38.96-1.14,16.74-1.9,34.25-3.77,50.88-.07.61-.29,2.95-.53,3.17-4.52,1.63-9.6,2.48-14.39,2.17-1.29-.09-7.81-1.07-8.14-2.22l-5.42-71.68h4.97c.24,0,2.65-.7,2.82-1.15-2.17.43-4.38.25-6.59.3l-11.94-1.16c.19.49,1.28.73,1.74.87,2.74.83,5.67.9,8.47,1.29-1.12,10.3-1.62,20.7-2.42,31.04-.55,7.09-1.31,14.19-1.88,21.28-.43,5.39-.42,11.36-1.1,16.65-.17,1.31-2.32,1.89-3.47,2.17-5.67,1.42-12.12.86-17.61-1.14-.47-5.99-.58-12-.92-18-.02-.37-.28-.65-.28-.7-.46-8.03-.92-16.2-1.34-24.15-.02-.29.01-.58,0-.86Z"/>
  <path class="st14" d="M244.35,499.28c-.29.39-.53.83-.72,1.32-1.37,5.31-4.41,10.86-7.52,15.24-.15.47-.16.73.03,1.15.86,1.9,11.9,6.64,14.21,7.44,6.9,2.4,9.07,1.58,14.66-3.19,10.97-9.36,19.02-22.3,24.75-35.9l1.23-2.09c3.29-2.01,5.92-4.66,7.89-7.94.03,1.27,1.47.75,2.26.43,3.07-1.26,4.62-5.35,2.13-7.98,1.21.86,1.53-1.68,1.49-2.73-.04-1.27-.76-2.51-1.81-3.06.83-.1,1.29-2.22,1.04-3.13-.16-.58-.36-1.03-.62-1.38-.61-.32-1.11-.52-1.53-1.01-.66-.16-1.43-.14-2.27-.06.71-3.55-1.41-3.35-3.97-2.98-4.5.65-7.69,4.14-9.95,8.46-1.23,2.64-2.13,5.38-3.07,8.15-.1.29-.2.58-.29.88-.36,1.35-.66,2.65-.91,3.87-4.49,7.59-10.42,14.34-16.76,20.47-.71.78-1.44,1.53-2.21,2.24-.61.57-1.26,1.12-1.94,1.64-1.88,1.71-3.78,3.38-5.67,5l-10.46-4.84Z"/>
  <path class="st8" d="M160.35,519.87c-.75,8.49-1.79,16.94-3.03,25.36-.24,1.63-1.31,5.42-1.24,6.72.05,1,1.43,1.08,1.59,1.99-.47,8.83.1,17.61.27,26.45l-1.62-3.88c-.45-.02-.59-.15-.52.42.23,2.02,2.01,4.6,2.35,6.4.27,1.44-.03,3.42.33,4.97-.63.19-.45-.17-.61-.37-.58-.7-1.18-1.44-1.65-2.24l-3.65-7.74c-.08,1.48.47,3.15,1.02,4.51.87,2.14,2.42,3.93,3.29,5.98l-.42.72-3.9-1.43c1.25-2.1-.82-4.34-1.66-6.41-.55-1.36-.94-2.79-1.3-4.22-.98.44-.29,1.99-.07,2.81.41,1.53,2.94,5.78,2.72,6.76-.16.71-.96.94-1.57.63-.31-.16-3.15-3.31-3.45-3.79-2.86-4.47-2.92-9.96-2.73-15.19.29-7.7,1.06-16.72,1.91-24.4,1.02-9.23,3.18-18.27,4.27-27.49,3.13,1.45,6.18,3.17,9.67,3.45Z"/>
  <path class="st0" d="M221.46,651.24c.36.06,2.15.73,2.63.93,5.41,2.21,8.07,7.85,2.59,12.13-3.51,2.74-8.55,5-12.82,5.83-9.29,1.79-19.14.62-13.86-12.29,4.69,1.24,10.73,1.99,14.75-1.41.25,0,2.1,2.43,2.47,2.8.22.22.51.71.88.36.43-.41-2.94-3.69-3.08-4.03-.3-.71-.09-1.55-.14-2.29l4.97,4.89c.39-.68-.52-1.63-.94-2.16-1.23-1.56-3.72-2.59-3.77-4.74,1.96.22,4.42-.3,6.31,0Z"/>
  <path class="st60" d="M240.4,520.73c-.29-.7-.43-.78-.54,0v.3c.18.11.36.22.54.33v-.64Z"/>
  <path class="st37" d="M298.42,476.88c.49-.25,1.53-.17,2.3-.41,1.65-.52,3.76-2.37,4.09-4.25.31-1.78-.39-2.89-.37-3.96.02-.94.89-1.89.7-3.74-.14-1.4-1.22-2.16-1.31-2.62-.06-.35.51-1.21.69-2.02-.02-.12-.04-.24-.06-.36-.08-.47-.1-1.03-.26-1.47,0-.03-.02-.05-.03-.08-.01,0-.03-.02-.04-.04-.18-.17-.43-.29-.65-.4-.82-.44-1.44-.62-1.95-1.5-.03-.04-.05-.09-.07-.14-.74-.1-1.36-.05-1.43-.13-.13-.14.41-2.24-1.06-2.75-.73-.26-2.81-.21-3.64-.12-2.7.29-5.06,1.98-7.02,4.24-.99,1.44-1.81,2.96-2.46,4.3-1.34,2.77-2.29,5.68-3.28,8.6-.89,2.61-1.67,5.44-3.36,7.61-.17.21-.34.42-.52.61-.14.21-.29.42-.44.64-2.84,3.99-6.44,8.19-10.21,12.18-1.74,2.29-3.57,4.49-5.65,6.41-1.18,1.09-2.5,2.16-3.92,2.99-.21.19-.42.38-.63.57-1,.91-2.07,1.76-3.09,2.65l-4.52-2.17c-1.63-.5-3.23-1.31-4.75-2.28l-1.34-.64c-.17.67-.36,1.33-.54,2.01l.64-.83,10.52,4.84c1.19-.06,13.49-12.36,15.18-14.2,3.07-3.34,10.38-11.43,11.92-15.42.72-1.88.89-4.41,1.5-6.45,1.39-4.64,4.92-11.63,9.23-13.7,1.12-.54,5.84-1.75,6.6-.78.08.11.09,1.77,0,1.94-.13.21-4.84,1.36-3.72,2.63.16.18,1.48-.84,1.88-1,3.55-1.39,7.31-1.39,5.9,3.88-.74-.43-4.81-.94-4.83.14-.01.66,2.32.38,2.81.44,3.12.38,3.53,2.49,2.82,5.46l-2.68-1.44c-.04,1.58,2.12,1.93,2.56,3.43.89,3.03-1.97,6.15-4.71,6.05l1.34-3.31c-1.2-.58-1.4,1.59-1.93,2.53-.99,1.76-2.38,3.76-3.85,5.08-1.14,1.03-3.33,2.03-4.16,3.02-1.19,1.42-2.93,6.36-3.98,8.39-3.16,6.12-6.88,12.69-11.07,18.05-2.99,3.83-13.96,15.85-18.4,15.98-4.75.13-16.73-5.04-20.36-8.4-.35-.33-.74-.45-.72-1.1-.26.37-.23.75-.54,1.15.78,1.47,4.08,2.28,4.3,3.74.17-.02.37.03.54,0,.53-.11,8.19,3.71,9.88,4.23,5.08,1.58,7.51,2.16,12.07-1,8.59-5.96,16.84-17.06,22.18-26.56,1.08-2.15,2.1-4.33,3.09-6.53.66-1.46,1.17-3.35,2.05-4.66.07-.11.19-.26.33-.41.25-.5.5-.95.72-1.33.01-.1.02-.19.04-.29.11-.7.53-1.01,1-1.04,1.19-1.08,3.21-2.04,4.37-3.24.5-.52,1.93-2.84,2.28-3.02Z"/>
  <path class="st51" d="M213.81,650.67v5.03c-1.27,2.43-12.89,2.32-12.89.86v-5.32c4.25.61,8.7.42,12.89-.57Z"/>
  <path class="st61" d="M198.5,667.63c3.45,4.99,11.08,4.12,16.17,3.07s9.34-3.64,13.65-6.52c.19.21-1.37,2.2-1.6,2.45-5.03,5.55-13.99,8.28-21.09,7.6-3.49-.33-7.33-2.33-7.12-6.61Z"/>
  <path class="st0" d="M164.91,658.43c.13-.34.4-.97.66-1.18.57-.45,4.01.54,5.11.61,3.89.25,5.79-.19,9.01-2.31.22-.14.54-.58.81-.45l1.88,2.17c-.33-2.44-2.77-3.79-2.15-6.61,3.68-.81,11.83,2.74,11.23,7.56-.41,3.29-7.68,8.32-10.43,9.54-4.09,1.81-12.85,2.95-16.24-.71-1.67-1.81-.69-6.46.14-8.63Z"/>
  <path class="st51" d="M166.26,654.4c.66-.71,0-4.89.27-5.17,4.19.71,8.44.86,12.62,0,.25.27-.39,3.96.27,4.6-.38,1.81-4.46,2.76-6.03,2.89-2.4.19-4.75-.38-7.13-.59-.03-.57.02-1.15,0-1.72Z"/>
  <path class="st57" d="M163.57,667.05c1.05.49,1.81,1.37,2.9,1.93,4.29,2.2,10.46,1.46,14.75-.44,3.92-1.74,7.06-4.35,9.75-7.81-.29,1.38-1.18,2.67-2.01,3.74-4.08,5.24-10.69,9.13-17.19,8.62-3.35-.26-8.02-1.73-8.2-6.03Z"/>
  <path d="M162.23,643.19c-.15.61.46,2.25-.53,2.01.15-.61-.46-2.25.53-2.01Z"/>
  <rect x="159.54" y="604.1" width=".54" height="1.72"/>
  <path d="M161.42,628.24c-.02.71.23,1.73-.53,2.01.02-.7-.23-1.74.53-2.01Z"/>
  <rect x="160.62" y="623.93" width=".53" height="1.43"/>
  <path class="st17" d="M296.01,446.27c-.39-.05-.45-1.25-.5-1.62-.83-6.31-1.09-13-1.11-19.37.64.28.61,1.33.72,1.95,1.14,6.24.86,12.7.88,19.03Z"/>
  <path class="st65" d="M289.02,446.85c-2-2.52-3.65-5.79-5.15-8.72-1.91-3.72-3.61-7.58-5.32-11.4,1.85,2.15,3.27,5.01,4.61,7.57,2.14,4.07,4.08,8.29,5.86,12.55Z"/>
  <path class="st9" d="M284.73,450.88s.1.6-.13.57c-2.1-1.24-4.06-2.72-6.02-4.19l-1.36-1.56,7.52,5.18Z"/>
  <path class="st21" d="M154.97,569.03c-.66,1.77-1.41,3.67-2.63,5.09-.27.31-.28.8-.86.66l2.63-5.09.86-.66Z"/>
</svg>